{"asset":{"version":"2.0","generator":"babylon.js glTF exporter for 3ds max 2017 v1.3.33"},"scene":0,"scenes":[{"nodes":[0,1],"extensions":{}}],"nodes":[{"mesh":0,"translation":[0.0,0.0,0.0],"rotation":[0.0,0.0,0.0,1.0],"scale":[1.0,1.0,1.0],"name":"1001"},{"translation":[0.0,0.0,0.0],"rotation":[0.0,0.0,0.0,1.0],"scale":[1.0,1.0,1.0],"name":"Default light"}],"meshes":[{"primitives":[{"attributes":{"POSITION":1,"NORMAL":2},"indices":0,"mode":4,"material":0}],"name":"1001"}],"accessors":[{"bufferView":0,"componentType":5123,"count":1692,"type":"SCALAR","name":"accessorIndices"},{"bufferView":1,"componentType":5126,"count":1692,"max":[116.976524,88.1641,103.576111],"min":[-109.553139,-5.37186861E-06,-81.01898],"type":"VEC3","name":"accessorPositions"},{"bufferView":1,"byteOffset":20304,"componentType":5126,"count":1692,"type":"VEC3","name":"accessorNormals"}],"bufferViews":[{"buffer":0,"byteLength":3384,"name":"bufferViewScalar"},{"buffer":0,"byteOffset":3384,"byteLength":40608,"byteStride":12,"name":"bufferViewFloatVec3"}],"buffers":[{"uri":"1001.bin","byteLength":43992}],"materials":[{"pbrMetallicRoughness":{"baseColorFactor":[1.0,1.0,1.0,1.0],"baseColorTexture":{"index":0,"texCoord":0},"metallicFactor":0.0,"roughnessFactor":0.9},"emissiveTexture":{"index":0,"texCoord":0},"emissiveFactor":[1.0,1.0,1.0],"alphaMode":"BLEND","name":"zj202101071"}],"textures":[{"sampler":0,"source":0,"name":"zj202101071_emissive.jpg"}],"images":[{"uri":"zj202101071_emissive.jpg"}],"samplers":[{"magFilter":9729,"minFilter":9987,"wrapS":10497,"wrapT":10497}]}