{"asset":{"version":"2.0","generator":"babylon.js glTF exporter for 3ds max 2017 v1.3.33"},"scene":0,"scenes":[{"nodes":[0,1],"extensions":{}}],"nodes":[{"mesh":0,"translation":[0.0,0.0,0.0],"rotation":[0.0,-0.3007058,0.0,0.953717],"scale":[1.0,1.0,1.0],"name":"1002"},{"translation":[0.0,0.0,0.0],"rotation":[0.0,0.0,0.0,1.0],"scale":[1.0,1.0,1.0],"name":"Default light"}],"meshes":[{"primitives":[{"attributes":{"POSITION":1,"NORMAL":2,"TEXCOORD_0":3},"indices":0,"mode":4,"material":0}],"name":"1002"}],"accessors":[{"bufferView":0,"componentType":5123,"count":5748,"type":"SCALAR","name":"accessorIndices"},{"bufferView":1,"componentType":5126,"count":5748,"max":[58.7655678,142.857788,243.369873],"min":[-58.7655258,3.81469681E-06,-243.369873],"type":"VEC3","name":"accessorPositions"},{"bufferView":1,"byteOffset":68976,"componentType":5126,"count":5748,"type":"VEC3","name":"accessorNormals"},{"bufferView":2,"componentType":5126,"count":5748,"type":"VEC2","name":"accessorUVs"}],"bufferViews":[{"buffer":0,"byteLength":11496,"name":"bufferViewScalar"},{"buffer":0,"byteOffset":11496,"byteLength":137952,"byteStride":12,"name":"bufferViewFloatVec3"},{"buffer":0,"byteOffset":149448,"byteLength":45984,"byteStride":8,"name":"bufferViewFloatVec2"}],"buffers":[{"uri":"1002.bin","byteLength":195432}],"materials":[{"pbrMetallicRoughness":{"baseColorFactor":[1.0,1.0,1.0,1.0],"baseColorTexture":{"index":0,"texCoord":0},"metallicFactor":0.0,"roughnessFactor":0.9},"emissiveTexture":{"index":0,"texCoord":0},"emissiveFactor":[1.0,1.0,1.0],"alphaMode":"BLEND","name":"zj202101071"}],"textures":[{"sampler":0,"source":0,"name":"zj202101071_emissive.jpg"}],"images":[{"uri":"zj202101071_emissive.jpg"}],"samplers":[{"magFilter":9729,"minFilter":9987,"wrapS":10497,"wrapT":10497}]}