{"asset":{"version":"2.0","generator":"babylon.js glTF exporter for 3ds max 2017 v1.3.33"},"scene":0,"scenes":[{"nodes":[0,1],"extensions":{}}],"nodes":[{"mesh":0,"translation":[0.0,0.0,0.0],"rotation":[0.0,0.0,0.0,1.0],"scale":[1.0,1.0,1.0],"name":"1003"},{"translation":[0.0,0.0,0.0],"rotation":[0.0,0.0,0.0,1.0],"scale":[1.0,1.0,1.0],"name":"Default light"}],"meshes":[{"primitives":[{"attributes":{"POSITION":1,"NORMAL":2,"TEXCOORD_0":3},"indices":0,"mode":4,"material":0}],"name":"1003"}],"accessors":[{"bufferView":0,"componentType":5123,"count":6474,"type":"SCALAR","name":"accessorIndices"},{"bufferView":1,"componentType":5126,"count":6474,"max":[475.000031,6.22445869,486.150879],"min":[-573.079041,0.542059541,-472.874878],"type":"VEC3","name":"accessorPositions"},{"bufferView":1,"byteOffset":77688,"componentType":5126,"count":6474,"type":"VEC3","name":"accessorNormals"},{"bufferView":2,"componentType":5126,"count":6474,"type":"VEC2","name":"accessorUVs"}],"bufferViews":[{"buffer":0,"byteLength":12948,"name":"bufferViewScalar"},{"buffer":0,"byteOffset":12948,"byteLength":155376,"byteStride":12,"name":"bufferViewFloatVec3"},{"buffer":0,"byteOffset":168324,"byteLength":51792,"byteStride":8,"name":"bufferViewFloatVec2"}],"buffers":[{"uri":"1003.bin","byteLength":220116}],"materials":[{"pbrMetallicRoughness":{"baseColorFactor":[1.0,1.0,1.0,0.98999995],"baseColorTexture":{"index":0,"texCoord":0},"metallicFactor":0.0,"roughnessFactor":0.9},"emissiveTexture":{"index":0,"texCoord":0},"emissiveFactor":[1.0,1.0,1.0],"alphaMode":"BLEND","name":"zj20101081"}],"textures":[{"sampler":0,"source":0,"name":"zj20101081_emissive.jpg"}],"images":[{"uri":"zj20101081_emissive.jpg"}],"samplers":[{"magFilter":9729,"minFilter":9987,"wrapS":10497,"wrapT":10497}]}