{"asset":{"version":"2.0","generator":"babylon.js glTF exporter for 3ds max 2017 v1.3.33"},"scene":0,"scenes":[{"nodes":[0,1],"extensions":{}}],"nodes":[{"mesh":0,"translation":[0.0,0.0,0.0],"rotation":[0.0,-0.9994645,0.0,0.0327213556],"scale":[1.0,1.0,1.0],"name":"1004"},{"translation":[0.0,0.0,0.0],"rotation":[0.0,0.0,0.0,1.0],"scale":[1.0,1.0,1.0],"name":"Default light"}],"meshes":[{"primitives":[{"attributes":{"POSITION":1,"NORMAL":2,"TEXCOORD_0":3},"indices":0,"mode":4,"material":0}],"name":"1004"}],"accessors":[{"bufferView":0,"componentType":5123,"count":2769,"type":"SCALAR","name":"accessorIndices"},{"bufferView":1,"componentType":5126,"count":2769,"max":[477.613739,2.80851841,402.808716],"min":[-208.125992,1.3085165,-190.006561],"type":"VEC3","name":"accessorPositions"},{"bufferView":1,"byteOffset":33228,"componentType":5126,"count":2769,"type":"VEC3","name":"accessorNormals"},{"bufferView":2,"componentType":5126,"count":2769,"type":"VEC2","name":"accessorUVs"}],"bufferViews":[{"buffer":0,"byteLength":5540,"name":"bufferViewScalar"},{"buffer":0,"byteOffset":5540,"byteLength":66456,"byteStride":12,"name":"bufferViewFloatVec3"},{"buffer":0,"byteOffset":71996,"byteLength":22152,"byteStride":8,"name":"bufferViewFloatVec2"}],"buffers":[{"uri":"1004.bin","byteLength":94148}],"materials":[{"pbrMetallicRoughness":{"baseColorFactor":[1.0,1.0,1.0,0.98999995],"baseColorTexture":{"index":0,"texCoord":0},"metallicFactor":0.0,"roughnessFactor":0.9},"emissiveTexture":{"index":0,"texCoord":0},"emissiveFactor":[1.0,1.0,1.0],"alphaMode":"BLEND","name":"zj20101081"}],"textures":[{"sampler":0,"source":0,"name":"zj20101081_emissive.jpg"}],"images":[{"uri":"zj20101081_emissive.jpg"}],"samplers":[{"magFilter":9729,"minFilter":9987,"wrapS":10497,"wrapT":10497}]}